<?xml version="1.0" encoding="UTF-8"?>
<svg version="1.1" xmlns="http://www.w3.org/2000/svg" width="24" height="24">
<path d="M0 0 C3 1.5 3 1.5 5 4 C6.01856723 7.50042822 6.44231592 10.7099119 5.25 14.1875 C5.1675 14.785625 5.085 15.38375 5 16 C6.62449243 17.70779973 8.29220027 19.37550757 10 21 C10 21.99 10 22.98 10 24 C7.04479987 23.56219257 5.97793533 22.97916115 3.75 20.875 C0.25204472 18.49003049 -1.10608415 19.08373081 -5.0703125 19.82421875 C-8.11031368 20.10114193 -9.71240686 18.88390023 -12 17 C-14.68990329 12.96514506 -14.77993882 9.73771348 -14 5 C-10.46188977 -0.59249681 -6.14758309 -1.16937722 0 0 Z M-9.375 4.5625 C-11.34359806 7.01459258 -11.34359806 7.01459258 -10.9375 10.625 C-10.3249155 14.25516924 -10.3249155 14.25516924 -7 16 C-3.87973093 16.32502803 -1.85252465 16.51151479 0.875 14.875 C2.55468045 12.07553259 2.45742277 10.20195936 2 7 C0.01677007 4.2087875 -1.12986121 3.17402776 -4.5 2.5 C-7.10963005 2.85938071 -7.10963005 2.85938071 -9.375 4.5625 Z " fill="#707385" transform="translate(14,0)"/>
</svg>
