<?xml version="1.0" encoding="UTF-8"?>
<svg version="1.1" xmlns="http://www.w3.org/2000/svg" width="24" height="24">
<path d="M0 0 C1.98 0 3.96 0 6 0 C6.33 1.32 6.66 2.64 7 4 C8.98 4 10.96 4 13 4 C14.125 9.75 14.125 9.75 13 12 C13.2475 13.485 13.2475 13.485 13.5 15 C14 18 14 18 13 20 C11.02 20 9.04 20 7 20 C6.67 21.32 6.34 22.64 6 24 C4.02 24 2.04 24 0 24 C-0.33 22.68 -0.66 21.36 -1 20 C-2.98 20 -4.96 20 -7 20 C-9.28571429 8.57142857 -9.28571429 8.57142857 -7 4 C-5.02 4 -3.04 4 -1 4 C-0.67 2.68 -0.34 1.36 0 0 Z M2 9 C1.34 10.32 0.68 11.64 0 13 C1.98 13.99 1.98 13.99 4 15 C4.66 13.68 5.32 12.36 6 11 C4.68 10.34 3.36 9.68 2 9 Z " fill="#707386" transform="translate(9,0)"/>
</svg>
