<?xml version="1.0" encoding="UTF-8"?>
<svg version="1.1" xmlns="http://www.w3.org/2000/svg" width="24" height="24">
<path d="M0 0 C0.66 0 1.32 0 2 0 C3.25664978 2.90600261 4 4.79604584 4 8 C6.97 8.33 9.94 8.66 13 9 C13 9.66 13 10.32 13 11 C12.154375 11.515625 11.30875 12.03125 10.4375 12.5625 C7.76089352 14.69300396 7.76089352 14.69300396 7.890625 17.26171875 C8.16239174 19.53955313 8.51617736 21.75812874 9 24 C8.2575 23.690625 7.515 23.38125 6.75 23.0625 C5.8425 22.711875 4.935 22.36125 4 22 C3.34 21.731875 2.68 21.46375 2 21.1875 C-0.97466116 20.90862552 -2.56780903 22.39987436 -5 24 C-5.66 24 -6.32 24 -7 24 C-6.86980469 23.39671875 -6.73960937 22.7934375 -6.60546875 22.171875 C-6.18039828 19.70884987 -5.87912321 17.49955925 -6 15 C-8.30068019 12.50789479 -8.30068019 12.50789479 -11 11 C-11 10.34 -11 9.68 -11 9 C-6.545 8.505 -6.545 8.505 -2 8 C-1.855625 7.236875 -1.71125 6.47375 -1.5625 5.6875 C-1 3 -1 3 0 0 Z " fill="#707385" transform="translate(11,0)"/>
</svg>
