<?xml version="1.0" encoding="UTF-8"?>
<svg version="1.1" xmlns="http://www.w3.org/2000/svg" width="24" height="24">
<path d="M0 0 C3.0153238 0.55123245 4.11758475 1.00743052 6.11328125 3.2734375 C7.86328125 6.5234375 7.86328125 6.5234375 7.86328125 10.5234375 C0.60328125 10.5234375 -6.65671875 10.5234375 -14.13671875 10.5234375 C-12.52836546 0.87331775 -9.17526445 -0.29127824 0 0 Z " fill="#717484" transform="translate(15.13671875,13.4765625)"/>
<path d="M0 0 C2.86801846 0.08864784 3.78417611 0.16414857 6.125 1.9375 C7.46661569 5.4257008 6.98928615 7.80025344 6.0625 11.375 C2.57125983 13.70249345 1.17027749 13.87799316 -2.9375 13.375 C-5.375 11.8125 -5.375 11.8125 -6.9375 9.375 C-6.73068708 3.37742524 -6.38544695 0.6081378 0 0 Z " fill="#707385" transform="translate(11.9375,-0.375)"/>
</svg>
